# xmcd
#
# Track frame offsets:
# 150
# 27056
# 50040
# 73393
# 87245
# 118595
# 131492
# 157708
#
# Disc length: 2403 seconds
#
#
# Revision: 0
# Processed by: cddbd v1.5.2PL0 Copyright (c) Steve Scherf et al.
# Submitted via: FreeRIP 2.945 
#
DISCID=65096108
DTITLE=Parliament - Live [CD1]
DYEAR=1900
DGENRE=Funk
TTITLE0=P Funk (Wants To Get Funked Up)
TTITLE1=Dr. Funkenstein's Supergroovalisticprosifunkstication Medley
TTITLE2=Do That Stuff
TTITLE3=The Landing (Of The Holy Mothership)
TTITLE4=Undisco Kidd (The Girl Is Bad!)
TTITLE5=Children Of Production
TTITLE6=Mothership Connection (Star Child)
TTITLE7=Swing Down, Sweet Chariot
EXTD=
EXTT0=
EXTT1=
EXTT2=
EXTT3=
EXTT4=
EXTT5=
EXTT6=
EXTT7=
PLAYORDER=
